<?xml version="1.0" encoding="UTF-8"?>
<svg version="1.1" xmlns="http://www.w3.org/2000/svg" width="500" height="500">
<path d="M0 0 C1.01496775 -0.00467997 1.01496775 -0.00467997 2.05043989 -0.00945449 C4.29930679 -0.01737931 6.54789968 -0.01113237 8.79676819 -0.00482178 C10.41714129 -0.00753432 12.03751315 -0.01109674 13.65788269 -0.01544189 C18.04892917 -0.02454332 22.43988143 -0.02102916 26.83092952 -0.01468372 C31.44255618 -0.00960432 36.05417501 -0.01432128 40.665802 -0.01745605 C48.41894469 -0.02109334 56.17204926 -0.01630627 63.92518616 -0.0067749 C72.85288632 0.00407463 81.78049488 0.00060867 90.70819277 -0.01042771 C98.39770024 -0.0195488 106.08718035 -0.02076141 113.7766915 -0.01555037 C118.35796801 -0.01245258 122.93920173 -0.01195969 127.52047539 -0.01862335 C131.83876246 -0.0244654 136.15693354 -0.02027658 140.47520828 -0.00883484 C142.04718522 -0.00622298 143.61917218 -0.00689262 145.19114494 -0.01136017 C166.34764569 -0.0658711 185.14290515 3.10285341 203.92591858 13.25396729 C204.77154358 13.68838135 205.61716858 14.12279541 206.48841858 14.57037354 C212.04437561 17.49303843 217.33568483 20.94587557 221.92591858 25.25396729 C221.92591858 25.91396729 221.92591858 26.57396729 221.92591858 27.25396729 C222.58591858 27.25396729 223.24591858 27.25396729 223.92591858 27.25396729 C223.92591858 27.91396729 223.92591858 28.57396729 223.92591858 29.25396729 C224.91591858 29.58396729 225.90591858 29.91396729 226.92591858 30.25396729 C242.9273725 47.54225142 250.70234714 71.65746772 250.17982483 95.06646729 C247.3263909 130.88803789 235.10166636 166.91881029 209.40638733 192.75445557 C207.96990687 194.20941318 206.57024094 195.6922809 205.17591858 197.18756104 C177.72051052 225.95987093 139.43335381 236.24787969 100.92591858 237.25396729 C89.65242292 237.40085721 78.37742461 237.35436983 67.10328674 237.32263184 C63.01291936 237.31224393 58.92254546 237.3078017 54.83216858 237.30279541 C46.86340111 237.29219802 38.89466473 237.27522177 30.92591858 237.25396729 C30.78721848 237.9852887 30.64851837 238.71661011 30.50561523 239.47009277 C29.86511874 242.84113394 29.22170717 246.21161269 28.57826233 249.58209229 C28.36020935 250.73209717 28.14215637 251.88210205 27.91749573 253.06695557 C26.57605532 260.08066618 25.12006603 267.0521039 23.48841858 274.00396729 C23.25896545 274.99138916 23.02951233 275.97881104 22.79310608 276.99615479 C22.6100592 277.78248291 22.42701233 278.56881104 22.23841858 279.37896729 C20.67811654 286.22538349 19.34228293 293.11435062 17.98841858 300.00396729 C16.97626553 305.08907096 15.95421896 310.17210548 14.92591858 315.25396729 C14.67696838 316.49050049 14.42801819 317.72703369 14.17152405 319.0010376 C13.44632387 322.54908537 12.69104436 326.08934061 11.92591858 329.62896729 C11.71330383 330.68567627 11.50068909 331.74238525 11.28163147 332.83111572 C9.4440953 341.10506376 6.17283151 347.51494002 -1.07408142 352.25396729 C-12.80359359 356.30097426 -28.11107889 354.44018572 -40.35118103 354.43927002 C-43.63329381 354.44146509 -46.91507425 354.45970724 -50.1971283 354.47857666 C-80.4356148 354.56051058 -80.4356148 354.56051058 -87.07408142 348.25396729 C-91.84841331 343.083902 -92.58646995 338.39419143 -92.46617126 331.52032471 C-91.78361536 321.76811133 -89.09857479 312.13533521 -86.94908142 302.62896729 C-86.43646358 300.31568037 -85.92507644 298.00212041 -85.41490173 295.68829346 C-84.19135466 290.15202181 -82.95365022 284.6190542 -81.70994568 279.08728027 C-80.88325797 275.40368742 -80.06741356 271.71780651 -79.25376892 268.03131104 C-78.32989295 263.8489979 -77.40056433 259.66799031 -76.46470642 255.48834229 C-74.81327403 248.10237077 -73.19192355 240.70985182 -71.57408142 233.31646729 C-71.42562775 232.63844055 -71.27717407 231.96041382 -71.1242218 231.26184082 C-69.34305079 223.12270856 -67.58598688 214.97882625 -65.8558197 206.82867432 C-63.57226316 196.07440973 -61.1885761 185.34985542 -58.70811462 174.63973999 C-58.54013367 173.91431 -58.37215271 173.18888 -58.19908142 172.44146729 C-57.94590149 171.34812576 -57.94590149 171.34812576 -57.68760681 170.23269653 C-54.79627688 157.71430245 -52.17931382 145.15181635 -49.64402771 132.55706787 C-46.95326249 119.21875944 -43.97943761 105.96308438 -40.86784363 92.71716309 C-38.38494433 82.13546424 -36.07356335 71.55212765 -34.01158142 60.87896729 C-31.88788058 49.93880358 -29.48431056 39.08945813 -26.88658142 28.25396729 C-26.7178653 27.53992737 -26.54914917 26.82588745 -26.37532043 26.09020996 C-25.89376456 24.05938366 -25.40176115 22.03139453 -24.90611267 20.00396729 C-24.62485535 18.84381104 -24.34359802 17.68365479 -24.05381775 16.48834229 C-22.09571179 10.02410411 -19.67411256 6.13091192 -14.07408142 2.25396729 C-9.26517404 0.59532366 -5.0719667 0.00317577 0 0 Z M66.92591858 74.25396729 C64.77325078 81.6272805 62.64555774 88.96382544 61.06654358 96.48443604 C60.91619156 97.19149689 60.76583954 97.89855774 60.6109314 98.62704468 C60.29236746 100.1264948 59.97584068 101.62637909 59.66130066 103.12667847 C58.81591874 107.15830777 57.95522557 111.18665886 57.09388733 115.21490479 C56.91764328 116.04015152 56.74139923 116.86539825 56.55981445 117.71565247 C55.30888964 123.54436042 54.00417643 129.35918085 52.66419983 135.16802979 C52.48071991 135.96370865 52.29723999 136.75938751 52.10820007 137.57917786 C51.22931126 141.38204804 50.34385348 145.18329925 49.45228577 148.98321533 C49.1322346 150.36121149 48.81224438 151.73922181 48.49232483 153.11724854 C48.07382263 154.90062622 48.07382263 154.90062622 47.64686584 156.72003174 C46.86252316 160.5647186 46.36690766 164.35628787 45.92591858 168.25396729 C53.0934099 168.3306606 60.26079358 168.38283453 67.42860413 168.41876221 C69.86191258 168.43375576 72.29519445 168.45415739 74.72840881 168.48028564 C78.24613549 168.51708648 81.76350181 168.53378859 85.28138733 168.54693604 C86.35172714 168.56241989 87.42206696 168.57790375 88.52484131 168.59385681 C107.25687547 168.59793773 121.14574233 161.21168985 134.53382874 148.65045166 C137.94285315 145.23066568 140.51181124 141.4123335 142.92591858 137.25396729 C143.39513733 136.4766626 143.86435608 135.69935791 144.34779358 134.89849854 C150.24464633 124.2668199 152.75083124 111.09883153 150.17591858 99.12896729 C147.5466802 90.16074323 142.82560556 82.90314979 134.73451233 77.89849854 C129.81263802 75.38770814 125.7415397 74.12856084 120.16932678 74.14044189 C118.98832901 74.14051743 117.80733124 74.14059296 116.59054565 74.14067078 C114.67794197 74.1484127 114.67794197 74.1484127 112.72669983 74.15631104 C110.76871712 74.15843346 110.76871712 74.15843346 108.7711792 74.16059875 C105.30402201 74.16441348 101.83690684 74.17423485 98.36976624 74.18530273 C94.83054676 74.19553931 91.29132048 74.20010119 87.75209045 74.20513916 C80.81001592 74.21585806 73.86796927 74.23292195 66.92591858 74.25396729 Z " fill="#FBFBFB" transform="translate(146.07408142089844,41.74603271484375)"/>
<path d="M0 0 C6.91986668 0.7593482 10.73786363 5.91044418 15 11 C32.78209707 33.6158129 36.58261457 59.84861478 33.53125 88.0390625 C29.8955283 114.86707623 18.24787323 146.3146751 -1 166 C-1.66 166 -2.32 166 -3 166 C-3 166.66 -3 167.32 -3 168 C-3.66 168 -4.32 168 -5 168 C-5.22042969 168.55300781 -5.44085938 169.10601562 -5.66796875 169.67578125 C-7.40883207 172.71335801 -9.74025904 174.86657937 -12.3125 177.1875 C-12.84375488 177.66872314 -13.37500977 178.14994629 -13.92236328 178.64575195 C-30.87949636 193.68869036 -51.46725741 204.42809461 -73.4375 209.8125 C-74.2219751 210.00739014 -75.0064502 210.20228027 -75.81469727 210.40307617 C-90.93578248 213.84817531 -106.26315944 214.2909312 -121.6953125 214.1953125 C-123.50804486 214.19156903 -125.32077928 214.18872839 -127.1335144 214.18673706 C-131.8384183 214.17920541 -136.54319302 214.15965081 -141.24804688 214.1373291 C-146.07550307 214.11664117 -150.90298073 214.10768697 -155.73046875 214.09765625 C-165.1537017 214.07639182 -174.57683999 214.04238735 -184 214 C-184.10186111 214.54909027 -184.20372223 215.09818054 -184.30867004 215.66390991 C-186.41839154 226.99473391 -188.64515196 238.27895688 -191.2069397 249.51623535 C-193.71523757 260.52299111 -196.13537177 271.54487548 -198.4140625 282.6015625 C-198.61471817 283.5730423 -198.81537384 284.54452209 -199.02210999 285.54544067 C-200.00423695 290.3067136 -200.97839175 295.06944646 -201.94213867 299.83447266 C-202.30105192 301.58240147 -202.66017275 303.33028767 -203.01953125 305.078125 C-203.2535112 306.25563828 -203.2535112 306.25563828 -203.49221802 307.4569397 C-205.36184506 316.48125817 -207.63321642 323.2432515 -215.5 328.75 C-220.04387182 331.02193591 -224.44637477 331.13082525 -229.4675293 331.16113281 C-230.75624435 331.17074036 -232.04495941 331.1803479 -233.37272644 331.19024658 C-234.77322206 331.19509634 -236.17371976 331.19937473 -237.57421875 331.203125 C-238.285301 331.20595238 -238.99638325 331.20877975 -239.72901344 331.21169281 C-243.49472038 331.22665374 -247.26038934 331.23590177 -251.02612305 331.24023438 C-254.89148824 331.24570351 -258.75649843 331.26970712 -262.62175274 331.29820633 C-265.61514761 331.31695147 -268.60845915 331.32204465 -271.60190773 331.32357025 C-273.02548976 331.32657239 -274.44907119 331.33451714 -275.87259483 331.34775543 C-294.24355013 331.50635728 -294.24355013 331.50635728 -301.4375 326.203125 C-305.74840586 320.81449267 -308.340819 316.56698068 -307.65625 309.40234375 C-306.99367574 304.57644632 -306.01496733 299.82475612 -305 295.0625 C-304.82210937 294.20076172 -304.64421875 293.33902344 -304.4609375 292.45117188 C-304.28820312 291.63326172 -304.11546875 290.81535156 -303.9375 289.97265625 C-303.78152344 289.23281494 -303.62554687 288.49297363 -303.46484375 287.73071289 C-303 286 -303 286 -302 285 C-299.69199496 284.88970629 -297.38086659 284.84401211 -295.0703125 284.82421875 C-293.61977781 284.80097944 -292.169257 284.77686058 -290.71875 284.75195312 C-288.43708583 284.71715385 -286.15591789 284.68768443 -283.87402344 284.67407227 C-270.47681356 284.57854587 -258.84322439 282.95857467 -249 273 C-239.77675913 261.67682483 -238.15941684 244.65181501 -235.1875 230.6875 C-234.84311 229.08305188 -234.49854283 227.47864177 -234.15380859 225.87426758 C-231.44586104 213.23694369 -228.82521765 200.5815368 -226.25854492 187.91479492 C-226.12098282 187.23888306 -225.98342072 186.56297119 -225.84169006 185.86657715 C-225.47394291 184.05871704 -225.10822364 182.25044476 -224.74267578 180.44213867 C-223.91417348 176.60221297 -222.97053619 172.80634605 -222 169 C-221.30827194 168.99191315 -220.61654388 168.98382629 -219.90385437 168.97549438 C-213.2457242 168.89614457 -206.58775461 168.80849209 -199.92984295 168.71247292 C-196.5104763 168.66342659 -193.091128 168.6171267 -189.67163086 168.578125 C-140.67203217 167.99963868 -95.5086934 163.13538735 -57 130 C-56.154375 129.278125 -55.30875 128.55625 -54.4375 127.8125 C-23.53775137 100.77521995 -3.84272294 60.11715028 -0.78613281 19.13232422 C-0.40341781 12.75880318 -0.1611936 6.38273238 0 0 Z " fill="#FAF9F9" transform="translate(412,127)"/>
<path d="M0 0 C0 0.33 0 0.66 0 1 C-10.7521279 2.06760917 -21.41379043 2.13058403 -32.20703125 2.09765625 C-34.02691102 2.09578679 -35.8467913 2.09436538 -37.66667175 2.09336853 C-42.41270382 2.08958493 -47.15870435 2.07979109 -51.90472412 2.06866455 C-56.76525445 2.05836012 -61.62578997 2.05385173 -66.48632812 2.04882812 C-75.99089912 2.0381643 -85.49544692 2.02113902 -95 2 C-95.66 5.63 -96.32 9.26 -97 13 C-97.33 13 -97.66 13 -98 13 C-98.19477739 11.37585622 -98.38059458 9.75063577 -98.5625 8.125 C-98.66691406 7.22007812 -98.77132812 6.31515625 -98.87890625 5.3828125 C-99 3 -99 3 -98 1 C-87.73252968 0.86834338 -77.465045 0.73787243 -67.19754124 0.60884857 C-62.42815486 0.54887951 -57.65877402 0.48852654 -52.8894043 0.42724609 C-48.27283305 0.36794388 -43.65624931 0.30971551 -39.03965569 0.25218201 C-37.29252593 0.23022952 -35.54540071 0.20791251 -33.79828072 0.18519592 C-22.53146321 0.03900649 -11.26776958 -0.02852844 0 0 Z " fill="#B8B5B1" transform="translate(323,339)"/>
<path d="M0 0 C0.66 0.33 1.32 0.66 2 1 C-0.12669835 3.33936818 -2.06224856 4.80653848 -5 6 C-5.99 6 -6.98 6 -8 6 C-8.66 7.32 -9.32 8.64 -10 10 C-10 9.34 -10 8.68 -10 8 C-10.66 8.66 -11.32 9.32 -12 10 C-14 12 -14 12 -17 14 C-17 13.34 -17 12.68 -17 12 C-19.31 12 -21.62 12 -24 12 C-24.33 12.99 -24.66 13.98 -25 15 C-31.40795994 17.25671633 -38.21416825 18.47343012 -45 18 C-45 17.67 -45 17.34 -45 17 C-43.99646484 16.77957031 -43.99646484 16.77957031 -42.97265625 16.5546875 C-29.62723209 13.43776964 -17.07073692 8.95182417 -5.00097656 2.45239258 C-3.36129447 1.58144292 -1.68332217 0.78328611 0 0 Z " fill="#A19FA0" transform="translate(331,274)"/>
<path d="M0 0 C0.33 0 0.66 0 1 0 C1.65463146 6.73543036 0.7640522 12.46816829 -1.3125 18.875 C-4.50117031 28.72656348 -5.78728928 38.74406167 -7 49 C-8.485 49.495 -8.485 49.495 -10 50 C-8.3831987 39.32749191 -6.12407377 28.80228289 -3.875 18.25 C-3.49846126 16.47400849 -3.12215741 14.69796717 -2.74609375 12.921875 C-1.83343373 8.61400473 -0.9176063 4.30681927 0 0 Z " fill="#857F81" transform="translate(91,199)"/>
<path d="M0 0 C5.45949074 1.09189815 6.01471081 1.68791562 9 6 C7.35 5.67 5.7 5.34 4 5 C4 5.66 4 6.32 4 7 C3.34 7 2.68 7 2 7 C2.02320313 7.91523438 2.04640625 8.83046875 2.0703125 9.7734375 C2.08835937 10.96195313 2.10640625 12.15046875 2.125 13.375 C2.14820313 14.55835938 2.17140625 15.74171875 2.1953125 16.9609375 C2 20 2 20 0 22 C0 14.74 0 7.48 0 0 Z " fill="#ADA9A9" transform="translate(412,127)"/>
<path d="M0 0 C0.33 0 0.66 0 1 0 C2.0143477 8.01701318 2.3132462 13.60891233 -1 21 C-1.1546875 22.8253125 -1.1546875 22.8253125 -1.3125 24.6875 C-2.27069696 29.30426717 -4.21166582 30.34010579 -8 33 C-7.09255759 30.20205258 -6.17964039 27.43069519 -5.046875 24.71484375 C-1.76981812 16.60779631 -0.82315318 8.63227742 0 0 Z " fill="#979494" transform="translate(297,146)"/>
<path d="M0 0 C1.26513694 3.79541083 0.43918386 6.51861442 -0.43359375 10.29296875 C-0.66877464 11.35201164 -0.66877464 11.35201164 -0.90870667 12.43244934 C-1.41090795 14.68586389 -1.92404984 16.93662477 -2.4375 19.1875 C-2.78002058 20.71533273 -3.12182622 22.24332592 -3.46289062 23.77148438 C-4.30031076 27.51623508 -5.14755094 31.25864311 -6 35 C-6.33 35 -6.66 35 -7 35 C-6.88521587 32.93690624 -6.75773802 30.87451646 -6.625 28.8125 C-6.55539063 27.66394531 -6.48578125 26.51539063 -6.4140625 25.33203125 C-6.01897058 22.15265948 -5.20863575 19.93394023 -4 17 C-3.41740744 13.69459638 -2.99343627 10.38680694 -2.5625 7.05859375 C-2.05565924 4.3026471 -1.40570265 2.39555159 0 0 Z " fill="#8E8B89" transform="translate(209,127)"/>
<path d="M0 0 C0.33 0 0.66 0 1 0 C1.28307925 7.24997422 0.50974035 13.90961228 -1 21 C-1.66 21 -2.32 21 -3 21 C-2.67 23.31 -2.34 25.62 -2 28 C-2.99 28.33 -3.98 28.66 -5 29 C-4.35963063 22.37386221 -3.29028836 15.95287291 -1.9375 9.4375 C-1.75123047 8.52419922 -1.56496094 7.61089844 -1.37304688 6.66992188 C-0.91891897 4.44585955 -0.461187 2.22260724 0 0 Z " fill="#A6A2A1" transform="translate(72,286)"/>
<path d="M0 0 C1.29227198 4.19988393 0.50255809 6.86796526 -1 11 C-2.5 12.6875 -2.5 12.6875 -4 14 C-4.28875 14.66 -4.5775 15.32 -4.875 16 C-6.38454453 18.68363472 -8.31920874 19.58905723 -11 21 C-9.3003494 16.26525903 -6.86340973 12.03832889 -4.375 7.6875 C-3.95476562 6.94693359 -3.53453125 6.20636719 -3.1015625 5.44335938 C-2.07051505 3.62730989 -1.03563954 1.81343467 0 0 Z " fill="#A6A4A4" transform="translate(395,205)"/>
<path d="M0 0 C0 3.47289374 -0.64169543 5.80798426 -2 9 C-4.18530628 10.50239807 -5.35955695 11 -8 11 C-8.99 11.66 -9.98 12.32 -11 13 C-11.66 12.34 -12.32 11.68 -13 11 C-8.71 7.37 -4.42 3.74 0 0 Z " fill="#CDCBCC" transform="translate(281,189)"/>
<path d="M0 0 C1.33996754 3.73759491 0.6665074 6.48368226 -0.21484375 10.296875 C-0.48876953 11.50214844 -0.76269531 12.70742188 -1.04492188 13.94921875 C-1.33947266 15.20347656 -1.63402344 16.45773437 -1.9375 17.75 C-2.22818359 19.01972656 -2.51886719 20.28945313 -2.81835938 21.59765625 C-3.53753155 24.73371851 -4.26503425 27.86760828 -5 31 C-5.33 31 -5.66 31 -6 31 C-6.14730993 25.66878365 -5.63009317 20.74288139 -4.6875 15.5 C-4.56955078 14.77941406 -4.45160156 14.05882812 -4.33007812 13.31640625 C-3.48129089 8.50225918 -2.07889564 4.42566019 0 0 Z " fill="#908B89" transform="translate(165,329)"/>
<path d="M0 0 C0.33 0 0.66 0 1 0 C0.85848172 2.0836309 0.71162064 4.16689938 0.5625 6.25 C0.48128906 7.41015625 0.40007812 8.5703125 0.31640625 9.765625 C0.06752213 12.30977376 -0.28114942 14.55953248 -1 17 C-0.34 17.33 0.32 17.66 1 18 C0.54625 18.37125 0.0925 18.7425 -0.375 19.125 C-2.47029394 21.54264685 -3.12013285 23.95430602 -4 27 C-5.17629657 23.52474084 -4.81182496 21.12508519 -4.00390625 17.578125 C-3.77509766 16.55332031 -3.54628906 15.52851562 -3.31054688 14.47265625 C-2.94026367 12.87744141 -2.94026367 12.87744141 -2.5625 11.25 C-2.31951172 10.17105469 -2.07652344 9.09210938 -1.82617188 7.98046875 C-1.22543705 5.31838893 -0.61644487 2.65847791 0 0 Z " fill="#918F8E" transform="translate(116,85)"/>
<path d="M0 0 C1.30660357 4.29727397 0.6596762 7.60215865 0 12 C0.99 12.33 1.98 12.66 3 13 C2.67 13.66 2.34 14.32 2 15 C1.34 15 0.68 15 0 15 C-0.433125 15.9590625 -0.433125 15.9590625 -0.875 16.9375 C-2 19 -2 19 -4 20 C-2.9413873 13.24289769 -1.77874156 6.60675438 0 0 Z " fill="#AEA9A9" transform="translate(189,302)"/>
<path d="M0 0 C0 0.66 0 1.32 0 2 C-6.75 4 -6.75 4 -9 4 C-9.2475 4.61875 -9.495 5.2375 -9.75 5.875 C-11.20628639 8.35068687 -12.37812506 8.95125002 -15 10 C-14.7416116 6.51175659 -13.73533264 5.75785753 -11.0625 3.3125 C-6.91297137 0.17918247 -5.14319896 -0.11180867 0 0 Z " fill="#AAA7A7" transform="translate(140,43)"/>
<path d="M0 0 C0.33 0 0.66 0 1 0 C0.88496731 2.5216376 0.75825223 5.0418119 0.625 7.5625 C0.5940625 8.26697266 0.563125 8.97144531 0.53125 9.69726562 C0.17103376 16.21117599 -1.44955818 21.98824428 -4 28 C-5.20467209 24.47020092 -4.79130044 21.96986544 -4.00390625 18.359375 C-3.77509766 17.28945312 -3.54628906 16.21953125 -3.31054688 15.1171875 C-3.06369141 14.00601563 -2.81683594 12.89484375 -2.5625 11.75 C-2.31951172 10.62335938 -2.07652344 9.49671875 -1.82617188 8.3359375 C-1.22531055 5.55548119 -0.61631561 2.77706428 0 0 Z " fill="#949291" transform="translate(104,139)"/>
<path d="M0 0 C0.66 0 1.32 0 2 0 C0.77696248 8.79148147 -0.88379055 17.37997349 -3 26 C-3.33 26 -3.66 26 -4 26 C-4.32138374 18.19156542 -4.19636598 12.1598598 -1 5 C-0.62033354 3.34327363 -0.26239024 1.67929755 0 0 Z " fill="#A4A09E" transform="translate(209,419)"/>
<path d="M0 0 C3.40458262 3.89095157 6.24177968 8.11365765 8 13 C7.67 13.66 7.34 14.32 7 15 C4.56070254 13.07423885 2.19909405 11.19909405 0 9 C0.66 9 1.32 9 2 9 C1.67 8.2575 1.34 7.515 1 6.75 C0 4 0 4 0 0 Z " fill="#DBDAD8" transform="translate(432,147)"/>
<path d="M0 0 C0.33 0 0.66 0 1 0 C0.85978195 2.64624284 0.71310224 5.29184578 0.5625 7.9375 C0.50352539 9.06961914 0.50352539 9.06961914 0.44335938 10.22460938 C0.11328125 15.88671875 0.11328125 15.88671875 -1 17 C-1.23287008 18.68183948 -1.41264166 20.3712416 -1.5625 22.0625 C-1.68818359 23.44115234 -1.68818359 23.44115234 -1.81640625 24.84765625 C-1.87699219 25.55792969 -1.93757813 26.26820313 -2 27 C-6.30495033 19.3707637 -1.70532909 8.23706125 0 0 Z " fill="#949291" transform="translate(108,417)"/>
<path d="M0 0 C-0.99 0 -1.98 0 -3 0 C-3.33 0.99 -3.66 1.98 -4 3 C-10.40795994 5.25671633 -17.21416825 6.47343012 -24 6 C-24 5.67 -24 5.34 -24 5 C-23.2265625 4.81824219 -22.453125 4.63648438 -21.65625 4.44921875 C-16.82095351 3.28228457 -12.10772615 2.14370563 -7.5 0.25 C-3.98503541 -1.0053445 -3.31187503 -1.07490681 0 0 Z " fill="#8C8988" transform="translate(310,286)"/>
<path d="M0 0 C0.66 0 1.32 0 2 0 C0.89644911 7.55607786 -0.59343789 14.74822618 -3 22 C-3.33 22 -3.66 22 -4 22 C-1.9 3.8 -1.9 3.8 0 0 Z " fill="#9A9695" transform="translate(157,363)"/>
<path d="M0 0 C0.33 0 0.66 0 1 0 C1.40850553 7.08076251 -0.09579269 13.19925959 -2 20 C-2.33 20 -2.66 20 -3 20 C-3.02689216 18.52093108 -3.04634621 17.04172517 -3.0625 15.5625 C-3.07410156 14.73878906 -3.08570313 13.91507813 -3.09765625 13.06640625 C-3 11 -3 11 -2 10 C-1.79300437 8.50503158 -1.63320741 7.0033408 -1.5 5.5 C-1.11111111 1.11111111 -1.11111111 1.11111111 0 0 Z " fill="#ADAAA9" transform="translate(393,148)"/>
<path d="M0 0 C0.33 0 0.66 0 1 0 C1.38999191 7.59762024 0.60758587 13.84466021 -2 21 C-2.33 21 -2.66 21 -3 21 C-3.15639125 15.93683317 -2.62766071 11.49601562 -1.5 6.5625 C-1.2215625 5.32628906 -0.943125 4.09007812 -0.65625 2.81640625 C-0.4396875 1.88699219 -0.223125 0.95757812 0 0 Z " fill="#A6A2A1" transform="translate(91,199)"/>
<path d="M0 0 C0.33 0 0.66 0 1 0 C1.02688151 1.64574566 1.04634123 3.29161413 1.0625 4.9375 C1.07410156 5.85402344 1.08570312 6.77054688 1.09765625 7.71484375 C1 10 1 10 0 11 C0.061875 12.7015625 0.061875 12.7015625 0.125 14.4375 C0.08375 15.613125 0.0425 16.78875 0 18 C-0.99 18.66 -1.98 19.32 -3 20 C-2.45136137 13.2142064 -1.45732062 6.64990964 0 0 Z " fill="#A3A0A1" transform="translate(98,167)"/>
<path d="M0 0 C-2.09836004 1.03271642 -4.20390891 2.05083717 -6.3125 3.0625 C-7.48425781 3.63097656 -8.65601563 4.19945312 -9.86328125 4.78515625 C-13 6 -13 6 -16 5 C-15.67 4.34 -15.34 3.68 -15 3 C-12.6859378 2.26924352 -10.35171131 1.59861742 -8 1 C-8 0.67 -8 0.34 -8 0 C-4.71303767 -0.79953138 -3.28976808 -1.09658936 0 0 Z " fill="#928D8D" transform="translate(370,325)"/>
<path d="M0 0 C-0.33 0.99 -0.66 1.98 -1 3 C-1.66 3 -2.32 3 -3 3 C-3.66 3.66 -4.32 4.32 -5 5 C-5 4.34 -5 3.68 -5 3 C-6.32 3 -7.64 3 -9 3 C-9 2.34 -9 1.68 -9 1 C-5.57367167 -0.61798838 -3.61944899 -1.34053666 0 0 Z " fill="#CAC9C7" transform="translate(319,283)"/>
<path d="M0 0 C5.16496336 0.65996754 10.26869483 1.79205759 15 4 C11.52176885 5.15941038 9.54104422 4.70820884 6 4 C6 3.34 6 2.68 6 2 C5.21625 2.20625 4.4325 2.4125 3.625 2.625 C2.75875 2.74875 1.8925 2.8725 1 3 C0.34 2.34 -0.32 1.68 -1 1 C-0.67 0.67 -0.34 0.34 0 0 Z " fill="#A5A2A1" transform="translate(322,45)"/>
<path d="M0 0 C1.23922223 3.71766668 0.57018942 5.43889537 -0.4375 9.1875 C-0.72496094 10.27417969 -1.01242188 11.36085937 -1.30859375 12.48046875 C-1.65083984 13.72763672 -1.65083984 13.72763672 -2 15 C-2.33 15 -2.66 15 -3 15 C-3.36263859 9.1977825 -2.25684543 5.36000789 0 0 Z " fill="#BBB6AF" transform="translate(209,127)"/>
<path d="M0 0 C1.65 0 3.3 0 5 0 C4.01 0.495 4.01 0.495 3 1 C2.30906104 3.57951874 2.30906104 3.57951874 1.875 6.5625 C1.70742187 7.57441406 1.53984375 8.58632813 1.3671875 9.62890625 C1.24601563 10.41136719 1.12484375 11.19382812 1 12 C0.67 12 0.34 12 0 12 C-0.19477739 10.37585622 -0.38059458 8.75063577 -0.5625 7.125 C-0.66691406 6.22007812 -0.77132812 5.31515625 -0.87890625 4.3828125 C-1 2 -1 2 0 0 Z " fill="#B1ADAA" transform="translate(225,340)"/>
<path d="M0 0 C1.57156655 3.1431331 0.11705576 5.365464 -0.9375 8.625 C-1.31777344 9.81351563 -1.69804687 11.00203125 -2.08984375 12.2265625 C-2.39019531 13.14179688 -2.69054687 14.05703125 -3 15 C-3.92027197 11.52092305 -4.36932981 8.61943215 -4 5 C-2 2.125 -2 2.125 0 0 Z " fill="#9E9A99" transform="translate(388,174)"/>
<path d="M0 0 C0.33 0 0.66 0 1 0 C0.979375 0.94875 0.95875 1.8975 0.9375 2.875 C0.77448174 5.90666283 0.77448174 5.90666283 2 8 C1.01 9.485 1.01 9.485 0 11 C-0.99 11 -1.98 11 -3 11 C-2.01 7.37 -1.02 3.74 0 0 Z " fill="#AEABAD" transform="translate(404,182)"/>
<path d="M0 0 C0.33 0 0.66 0 1 0 C0.03644647 9.41002278 0.03644647 9.41002278 -1 14 C-1.33 14 -1.66 14 -2 14 C-2.33 10.7 -2.66 7.4 -3 4 C-2.01 3.67 -1.02 3.34 0 3 C0 2.01 0 1.02 0 0 Z " fill="#A29998" transform="translate(175,281)"/>
<path d="M0 0 C0.33 0 0.66 0 1 0 C0.47462276 5.0302076 -0.10594786 10.01885239 -1 15 C-1.33 15 -1.66 15 -2 15 C-2.3690205 4.44191344 -2.3690205 4.44191344 0 0 Z " fill="#A49F9B" transform="translate(199,170)"/>
<path d="M0 0 C1.32 0.66 2.64 1.32 4 2 C2.35 3.98 0.7 5.96 -1 8 C-1.66 6.68 -2.32 5.36 -3 4 C-2.01 4 -1.02 4 0 4 C-0.33 3.01 -0.66 2.02 -1 1 C-0.67 0.67 -0.34 0.34 0 0 Z " fill="#BEBBBA" transform="translate(359,224)"/>
<path d="M0 0 C0.33 1.32 0.66 2.64 1 4 C-0.98 5.32 -2.96 6.64 -5 8 C-5.66 7.34 -6.32 6.68 -7 6 C-4.69 4.02 -2.38 2.04 0 0 Z " fill="#ADAAAA" transform="translate(275,194)"/>
<path d="M0 0 C0.66 0 1.32 0 2 0 C2.33 0.99 2.66 1.98 3 3 C1.78515625 4.82421875 1.78515625 4.82421875 0.0625 6.6875 C-0.50339844 7.31011719 -1.06929688 7.93273437 -1.65234375 8.57421875 C-2.09707031 9.04472656 -2.54179687 9.51523438 -3 10 C-3 6.13304322 -1.58090029 3.4911548 0 0 Z " fill="#ADA9A8" transform="translate(293,169)"/>
<path d="M0 0 C2.79872437 2.52788007 4.45773019 4.20411134 5 8 C3 8 3 8 1.375 6.5 C0.92125 6.005 0.4675 5.51 0 5 C-0.33 5.66 -0.66 6.32 -1 7 C-1 4.37886292 -0.68707555 2.49064888 0 0 Z " fill="#A4A2A1" transform="translate(379,81)"/>
<path d="M0 0 C0 0.66 0 1.32 0 2 C-6.75 4.125 -6.75 4.125 -9 3 C-6.38997624 -0.48003168 -4.1689578 -0.27793052 0 0 Z " fill="#CAC7C6" transform="translate(140,43)"/>
<path d="M0 0 C1.32 0.33 2.64 0.66 4 1 C1.69 3.31 -0.62 5.62 -3 8 C-3.33 7.34 -3.66 6.68 -4 6 C-3.67 5.01 -3.34 4.02 -3 3 C-2.01 3 -1.02 3 0 3 C0 2.01 0 1.02 0 0 Z " fill="#A19E9F" transform="translate(403,296)"/>
<path d="M0 0 C1.31625194 2.63250388 0.74813658 3.80179056 0.0625 6.625 C-0.13214844 7.44226563 -0.32679688 8.25953125 -0.52734375 9.1015625 C-0.68332031 9.72804688 -0.83929688 10.35453125 -1 11 C-1.66 9.68 -2.32 8.36 -3 7 C-2.34 6.67 -1.68 6.34 -1 6 C-1.66 4.68 -2.32 3.36 -3 2 C-2.01 1.34 -1.02 0.68 0 0 Z " fill="#D2D0CE" transform="translate(205,438)"/>
<path d="M0 0 C0.66 0.33 1.32 0.66 2 1 C-0.25 3.5625 -0.25 3.5625 -3 6 C-4.32 5.67 -5.64 5.34 -7 5 C-4.69 3.35 -2.38 1.7 0 0 Z " fill="#AEABAA" transform="translate(345,265)"/>
<path d="M0 0 C0 3 0 3 -1 6 C-2.98 6.33 -4.96 6.66 -7 7 C-4.66666667 4.66666667 -2.33333333 2.33333333 0 0 Z " fill="#A8A1A2" transform="translate(361,252)"/>
<path d="M0 0 C0.33 0 0.66 0 1 0 C1 2.64 1 5.28 1 8 C0.01 8.33 -0.98 8.66 -2 9 C-1.125 1.125 -1.125 1.125 0 0 Z " fill="#B8B4B2" transform="translate(83,240)"/>
<path d="M0 0 C2 1 2 1 2.8515625 3.06640625 C3.10679687 3.89011719 3.36203125 4.71382812 3.625 5.5625 C3.88539063 6.38878906 4.14578125 7.21507812 4.4140625 8.06640625 C4.60742188 8.70449219 4.80078125 9.34257812 5 10 C3.046875 9.2578125 3.046875 9.2578125 1 8 C0.16113831 5.32209537 0.18233586 2.8262059 0 0 Z " fill="#91908F" transform="translate(435,152)"/>
<path d="M0 0 C0.66 0 1.32 0 2 0 C4.13586678 3.20380017 4.23132175 4.01939967 4.125 7.6875 C4.10695313 8.49574219 4.08890625 9.30398437 4.0703125 10.13671875 C4.03550781 11.05904297 4.03550781 11.05904297 4 12 C3.67 12 3.34 12 3 12 C2 8 1 4 0 0 Z " fill="#8F8D8D" transform="translate(293,133)"/>
<path d="M0 0 C-2.31 1.32 -4.62 2.64 -7 4 C-7.33 3.01 -7.66 2.02 -8 1 C-4.93251126 -0.86240388 -3.40254489 -1.2151946 0 0 Z " fill="#A6A4A4" transform="translate(343,247)"/>
<path d="M0 0 C0.33 0 0.66 0 1 0 C0.67 2.31 0.34 4.62 0 7 C-0.99 7.33 -1.98 7.66 -3 8 C-1.125 1.125 -1.125 1.125 0 0 Z " fill="#C4C0C1" transform="translate(383,226)"/>
<path d="M0 0 C2.375 0.1875 2.375 0.1875 5 1 C6.3125 3.5625 6.3125 3.5625 7 6 C6.01 6 5.02 6 4 6 C1.8125 3 1.8125 3 0 0 Z " fill="#9B9999" transform="translate(287,125)"/>
<path d="" fill="#000000" transform="translate(0,0)"/>
<path d="" fill="#000000" transform="translate(0,0)"/>
<path d="" fill="#000000" transform="translate(0,0)"/>
<path d="" fill="#000000" transform="translate(0,0)"/>
<path d="" fill="#000000" transform="translate(0,0)"/>
<path d="" fill="#000000" transform="translate(0,0)"/>
<path d="" fill="#000000" transform="translate(0,0)"/>
<path d="" fill="#000000" transform="translate(0,0)"/>
<path d="" fill="#000000" transform="translate(0,0)"/>
<path d="" fill="#000000" transform="translate(0,0)"/>
<path d="" fill="#000000" transform="translate(0,0)"/>
<path d="" fill="#000000" transform="translate(0,0)"/>
<path d="" fill="#000000" transform="translate(0,0)"/>
<path d="" fill="#000000" transform="translate(0,0)"/>
<path d="" fill="#000000" transform="translate(0,0)"/>
<path d="" fill="#000000" transform="translate(0,0)"/>
<path d="" fill="#000000" transform="translate(0,0)"/>
<path d="" fill="#000000" transform="translate(0,0)"/>
<path d="" fill="#000000" transform="translate(0,0)"/>
<path d="" fill="#000000" transform="translate(0,0)"/>
<path d="" fill="#000000" transform="translate(0,0)"/>
<path d="" fill="#000000" transform="translate(0,0)"/>
<path d="" fill="#000000" transform="translate(0,0)"/>
<path d="" fill="#000000" transform="translate(0,0)"/>
<path d="" fill="#000000" transform="translate(0,0)"/>
<path d="" fill="#000000" transform="translate(0,0)"/>
<path d="" fill="#000000" transform="translate(0,0)"/>
<path d="" fill="#000000" transform="translate(0,0)"/>
<path d="" fill="#000000" transform="translate(0,0)"/>
<path d="" fill="#000000" transform="translate(0,0)"/>
<path d="" fill="#000000" transform="translate(0,0)"/>
<path d="" fill="#000000" transform="translate(0,0)"/>
<path d="" fill="#000000" transform="translate(0,0)"/>
<path d="" fill="#000000" transform="translate(0,0)"/>
<path d="" fill="#000000" transform="translate(0,0)"/>
<path d="" fill="#000000" transform="translate(0,0)"/>
<path d="" fill="#000000" transform="translate(0,0)"/>
<path d="" fill="#000000" transform="translate(0,0)"/>
<path d="" fill="#000000" transform="translate(0,0)"/>
<path d="" fill="#000000" transform="translate(0,0)"/>
<path d="" fill="#000000" transform="translate(0,0)"/>
<path d="" fill="#000000" transform="translate(0,0)"/>
<path d="" fill="#000000" transform="translate(0,0)"/>
<path d="" fill="#000000" transform="translate(0,0)"/>
<path d="" fill="#000000" transform="translate(0,0)"/>
<path d="" fill="#000000" transform="translate(0,0)"/>
<path d="" fill="#000000" transform="translate(0,0)"/>
<path d="" fill="#000000" transform="translate(0,0)"/>
<path d="" fill="#000000" transform="translate(0,0)"/>
<path d="" fill="#000000" transform="translate(0,0)"/>
<path d="" fill="#000000" transform="translate(0,0)"/>
<path d="" fill="#000000" transform="translate(0,0)"/>
<path d="" fill="#000000" transform="translate(0,0)"/>
<path d="" fill="#000000" transform="translate(0,0)"/>
<path d="" fill="#000000" transform="translate(0,0)"/>
<path d="" fill="#000000" transform="translate(0,0)"/>
</svg>
